<?xml version="1.0" encoding="utf-8"?>
<!-- Generator: Adobe Illustrator 28.0.0, SVG Export Plug-In . SVG Version: 6.00 Build 0)  -->
<svg version="1.1" id="Camada_1" xmlns="http://www.w3.org/2000/svg" xmlns:xlink="http://www.w3.org/1999/xlink" x="0px" y="0px"
	 viewBox="0 0 1366 438.8" style="enable-background:new 0 0 1366 438.8;" xml:space="preserve">
<style type="text/css">
	.st0{fill:#FFFFFF;}
</style>
<g>
	<g>
		<g>
			<path d="M334,411.6h-7.8l28-76.1h9.5l28.3,76.1h-8l-7.4-20.2h-35.1L334,411.6z M357.9,346.2l-14.1,38.5h30.3l-14.2-38.5
				c-0.1-0.6-0.3-1.1-0.5-1.7c-0.2-0.6-0.4-1-0.4-1.4c-0.1,0.4-0.2,0.8-0.4,1.4C358.4,345.1,358.2,345.7,357.9,346.2z"/>
			<path d="M421.6,385.1v-49.6h7.7v49.3c0,6.7,1.8,11.8,5.3,15.3c3.5,3.5,8.6,5.3,15.3,5.3c6.4,0,11.4-1.8,15-5.4
				c3.5-3.6,5.3-8.7,5.3-15.3v-49.3h7.7v49.6c0,5.7-1.1,10.7-3.3,14.8s-5.4,7.3-9.6,9.6c-4.2,2.2-9.2,3.3-15,3.3
				c-5.9,0-10.9-1.1-15.1-3.3c-4.2-2.2-7.5-5.4-9.7-9.6C422.8,395.8,421.6,390.8,421.6,385.1z"/>
			<path d="M510.8,355.2c0-4.3,1.1-8,3.2-11.1c2.1-3.2,5.1-5.6,8.9-7.4c3.8-1.8,8.3-2.7,13.4-2.7c4.6,0,8.6,0.8,12.1,2.4
				c3.4,1.6,6.2,4,8.2,7c2.1,3,3.3,6.7,3.6,11h-7.8c-0.4-4.3-2.1-7.6-4.9-9.9c-2.8-2.4-6.6-3.6-11.4-3.6c-5.3,0-9.6,1.3-12.9,3.8
				c-3.3,2.6-4.9,6-4.9,10.3c0,3.3,1,6.1,3,8.2c2,2.2,5,3.7,8.9,4.7l13.1,3.2c6,1.4,10.5,3.8,13.5,7.2c3,3.4,4.6,7.6,4.6,12.8
				c0,4.3-1.1,8.1-3.2,11.4c-2.1,3.3-5.1,5.8-9,7.5c-3.9,1.8-8.5,2.7-13.7,2.7c-4.9,0-9.2-0.8-13-2.4c-3.8-1.6-6.8-4-8.9-7
				c-2.2-3-3.4-6.6-3.8-10.7h7.9c0.2,4,1.9,7.2,5.2,9.6c3.3,2.4,7.5,3.6,12.7,3.6c5.6,0,10-1.3,13.3-3.8c3.3-2.6,4.9-6,4.9-10.3
				c0-3.5-1-6.3-2.9-8.5c-2-2.2-5-3.7-9.1-4.7l-12.9-3.2c-6-1.4-10.5-3.8-13.6-7.2C512.4,364.8,510.8,360.5,510.8,355.2z"/>
			<path d="M586.8,342.5v-7h54.5v7H586.8z M617.9,338.8v72.7h-7.7v-72.7H617.9z"/>
			<path d="M679.1,411.6h-7.7v-76.1h28.4c7.7,0,13.7,2,18.1,5.9s6.6,9.3,6.6,16.1c0,5.5-1.4,10-4.1,13.7c-2.7,3.7-6.5,6.2-11.4,7.5
				l16.3,32.9h-8.5L701.3,380h-22.2V411.6z M679.1,342.3v30.7h20.9c5.2,0,9.3-1.4,12.3-4.1c2.9-2.8,4.4-6.5,4.4-11.3
				c0-5-1.5-8.8-4.6-11.4c-3-2.6-7.2-3.9-12.3-3.9H679.1z"/>
			<path d="M759.1,411.6h-7.8l28-76.1h9.5l28.3,76.1h-8l-7.4-20.2h-35.1L759.1,411.6z M783,346.2l-14.1,38.5h30.3l-14.2-38.5
				c-0.1-0.6-0.3-1.1-0.5-1.7c-0.2-0.6-0.4-1-0.4-1.4c-0.1,0.4-0.2,0.8-0.4,1.4C783.4,345.1,783.2,345.7,783,346.2z"/>
			<path d="M854.9,335.4v76.1h-7.7v-76.1H854.9z M848.5,411.6v-7h41.4v7H848.5z"/>
			<path d="M928.5,335.4v76.1h-7.7v-76.1H928.5z"/>
			<path d="M966.6,411.6h-7.8l28-76.1h9.5l28.3,76.1h-8l-7.4-20.2H974L966.6,411.6z M990.5,346.2l-14.1,38.5h30.3l-14.2-38.5
				c-0.1-0.6-0.3-1.1-0.5-1.7c-0.2-0.6-0.4-1-0.4-1.4c-0.1,0.4-0.2,0.8-0.4,1.4C990.9,345.1,990.7,345.7,990.5,346.2z"/>
		</g>
	</g>
	<g>
		<g>
			<path d="M0,93.8V59h164.2v34.9H0z M101,77v197.9H63.2V77H101z"/>
			<path d="M261.7,128.4v33.4h-13.3c-13.2,0-23.5,3.5-31,10.5c-7.5,7-11.2,17.6-11.2,31.8v70.9h-36V129.3h34l3,30.1h-3.5
				c2-9.6,6.6-17.5,13.9-23.6c7.3-6.1,16.7-9.2,28.4-9.2c2.6,0,5.1,0.1,7.7,0.3C256,127.1,258.7,127.6,261.7,128.4z"/>
			<path d="M385.1,129h36v145.9h-33.4l-2.7-19.5c-4.3,6.9-10.8,12.5-19.5,16.8c-8.7,4.3-17.9,6.5-27.8,6.5
				c-16.7,0-29.8-5.3-39.3-15.9c-9.5-10.6-14.2-24.8-14.2-42.5V129h36v78.6c0,13.8,2.7,23.7,8,29.8c5.3,6.1,13,9.2,23,9.2
				c11.4,0,19.9-3.4,25.4-10.2c5.5-6.8,8.3-17.1,8.3-30.9V129z"/>
			<path d="M444.2,230.6h34.3c0.2,6.3,2.6,11.3,7.1,15.1c4.5,3.7,10.8,5.6,18.9,5.6c8.7,0,15.2-1.6,19.6-4.7
				c4.4-3.1,6.6-7.4,6.6-12.7c0-3.5-1.2-6.7-3.5-9.5c-2.4-2.8-6.8-4.8-13.3-6.2l-26.3-6.2c-13.2-3-23-7.7-29.4-14.3
				c-6.4-6.6-9.6-15.7-9.6-27.3c0-9.5,2.5-17.6,7.5-24.5c5-6.9,11.9-12.2,20.5-15.8c8.7-3.6,18.6-5.5,29.8-5.5
				c10.8,0,20.4,2,28.6,5.9c8.3,3.9,14.7,9.5,19.3,16.5c4.6,7.1,7,15.4,7.2,24.8h-34.3c0-6.3-2-11.3-5.9-14.9
				c-3.9-3.6-9.5-5.5-16.5-5.5c-7.1,0-12.6,1.6-16.5,4.7c-3.9,3.2-5.9,7.4-5.9,12.7c0,8.1,6.3,13.6,18.9,16.5l26.3,6.2
				c12.2,2.8,21.4,7.2,27.6,13.3c6.2,6.1,9.3,14.8,9.3,26c0,9.8-2.6,18.4-7.7,25.5c-5.1,7.2-12.3,12.7-21.6,16.5
				c-9.3,3.8-19.9,5.8-31.9,5.8c-18.1,0-32.5-4.4-43.3-13.3C449.5,256.5,444.2,244.9,444.2,230.6z"/>
			<path d="M577.7,129h92.1v30.1h-92.1V129z M641.8,274.9h-36V83.5h36V274.9z"/>
			<path d="M942.8,201.6c0-15.2,3.3-28.5,10-40c6.7-11.5,15.9-20.5,27.8-27c11.8-6.5,25.2-9.7,40.2-9.7c15.2,0,28.6,3.2,40.3,9.7
				c11.7,6.5,20.9,15.5,27.6,27c6.7,11.5,10,24.9,10,40c0,15.2-3.3,28.5-10,40c-6.7,11.5-15.9,20.5-27.6,27
				c-11.7,6.5-25.2,9.7-40.3,9.7c-15,0-28.4-3.2-40.2-9.7c-11.8-6.5-21.1-15.5-27.8-27C946.1,230.1,942.8,216.8,942.8,201.6z
				 M978.8,201.6c0,8.9,1.8,16.6,5.5,23.3c3.6,6.7,8.6,11.9,14.8,15.7c6.2,3.7,13.4,5.6,21.7,5.6s15.6-1.9,21.9-5.6
				c6.3-3.7,11.2-9,14.8-15.7c3.5-6.7,5.3-14.5,5.3-23.3c0-9.1-1.8-16.9-5.3-23.5c-3.5-6.6-8.5-11.8-14.8-15.5
				c-6.3-3.7-13.6-5.6-21.9-5.6s-15.5,1.9-21.7,5.6c-6.2,3.7-11.1,8.9-14.8,15.5C980.6,184.7,978.8,192.6,978.8,201.6z"/>
			<path d="M1211.1,128.4v33.4h-13.3c-13.2,0-23.5,3.5-31,10.5c-7.5,7-11.2,17.6-11.2,31.8v70.9h-36V129.3h34l3,30.1h-3.5
				c2-9.6,6.6-17.5,13.9-23.6c7.3-6.1,16.7-9.2,28.4-9.2c2.6,0,5.1,0.1,7.7,0.3C1205.4,127.1,1208.1,127.6,1211.1,128.4z"/>
			<path d="M1264.1,274.9h-35.7V55.1h35.7v135l56.7-61.1h45.2l-55.5,57.9l54.3,88h-41.3l-38.1-61.4l-21.3,22.2V274.9z"/>
		</g>
		<path d="M1003.1,7.8c-23,16.1-41.3,37.9-57.9,61.9c-26.7,38.6-47.5,81.2-66.3,125.3c-1.5-4.5-4.4-13.6-6.9-22.6
			c-1-3.7-2.4-9.1-3.9-15.7c-9.9-33.2-19.8-66.4-29.7-99.6h-41.6c0,0-37.8,126.4-39.4,132.8c-1.7,6.4-3.4,14.4-5.2,24.1
			c-1.6-9.4-3.2-17.5-4.7-24.1c-1.6-6.6-3.2-12.8-5-18.8L708.2,57h-39.3l64.4,215.9h36.9l47.3-157.1
			c14.9,52.1,29.9,104.2,44.8,156.3c0.8,0,1.5,0,2.3,0c0,0,0,0,0.1,0c0.1,0,0.3,0,0.4,0c11.1-0.1,17.1-0.1,19.7,0c0.1,0,0.1,0,0.2,0
			c0,0,0.1,0,0.1,0c0.5,0,0.9,0,1.1,0.1c0.1,0,0.4,0.2,0.7,0.1c0,0,0.1,0,0.2-0.1c4.1-0.4,6.3-2.9,7.9-7.8
			c12.9-39.1,26.3-78.1,41.2-116.3c14.2-36.3,29.9-71.7,50.3-104.1c10.1-16.1,21.5-30.7,34.9-43.7C1014.3,0.1,1008.7,3.9,1003.1,7.8
			z"/>
	</g>
	<line x1="882" y1="274.1" x2="882" y2="274.1"/>
	<path d="M882,276"/>
</g>
<line class="st0" x1="1316.6" y1="208.9" x2="1316.6" y2="208.9"/>
<path class="st0" d="M1316.6,210.5"/>
</svg>
